#N canvas 1993 111 1132 824 10;
#X obj 540 99 stripnote;
#X obj 472 67 notein 1;
#X text 286 21 number dialed stored as variable extra audio to handset
sequence with voice Disabled at present;
#X msg 855 278 \$1;
#X floatatom 540 148 5 0 0 0 - - -, f 5;
#X msg 535 286 stop;
#X obj 603 610 *~;
#X obj 604 444 vsl 15 128 0 1 0 0 empty empty empty 0 -9 0 10 -258113
-1 -1 8890 1;
#X text 860 381 kiosk specific sound file;
#X obj 538 227 bng 15 250 50 0 empty empty empty 17 7 0 10 -262144
-1 -1;
#X obj 443 339 loadbang;
#X obj 713 16 bng 15 250 50 0 empty empty empty 17 7 0 10 -262144 -1
-1;
#X msg 854 430 open /home/chris/Dropbox/K6/audio/\$1.wav \, 1;
#X obj 429 72 bng 15 250 50 0 empty empty empty 17 7 0 10 -262144 -1
-1;
#X msg 436 116 5;
#X obj 684 520 readsf~ 2;
#X obj 770 609 *~;
#X obj 772 446 vsl 15 128 0 1 0 0 empty empty empty 0 -9 0 10 -258113
-1 -1 7090 1;
#X obj 57 675 *~;
#X obj 365 460 vsl 15 128 0 1 0 0 empty empty empty 0 -9 0 10 -257985
-1 -1 11430 1;
#X obj 29 585 readsf~ 1;
#X obj 92 443 bng 15 250 50 0 empty empty empty 17 7 0 10 -262144 -1
-1;
#X text 75 767 background noise to speakers in box and kitchen - hardware
mixer;
#X obj 664 690 dac~ 3 4;
#X obj 83 736 dac~ 3 4;
#X obj 431 460 vsl 15 128 0 1 0 0 empty empty empty 0 -9 0 10 -257985
-1 -1 11430 1;
#X obj 371 658 *~;
#X text 395 710 mix of main mix specific audio hardware mixer to control
levels to speakers in box and in kitchen;
#X msg 729 407 0.7;
#X obj 541 190 sel 100 102;
#X obj 946 113 vsl 15 128 0 1 0 0 empty empty empty 0 -9 0 10 -262144
-1 -1 6350 1;
#X msg 23 354 stop;
#X obj 123 44 adc~;
#X obj 195 281 dac~ 3 4;
#X obj 151 180 *~;
#X obj 224 36 vsl 15 128 0 1 0 0 empty empty empty 0 -9 0 10 -262144
-1 -1 10160 1;
#X text 193 184 sound from outside k6;
#X msg 712 70 open /home/chris/Dropbox/K6/audio/please_hold.wav \,
1;
#X obj 788 185 readsf~ 1;
#X obj 935 349 dac~ 3 4;
#X obj 940 296 *~;
#X msg 304 94 0.8;
#X msg 79 330 open /home/chris/Dropbox/K6/audio/background.wav \, 2
;
#X msg 869 104 0.5;
#X msg 435 396 0.9;
#X msg 371 392 0.9;
#X obj 111 235 freeverb~;
#X msg 24 191 bypass 0;
#X msg 62 149 bypass 1;
#X obj 655 648 freeverb~;
#X msg 541 393 0.6;
#X connect 0 0 4 0;
#X connect 1 0 0 0;
#X connect 1 1 0 1;
#X connect 3 0 12 0;
#X connect 4 0 29 0;
#X connect 5 0 15 0;
#X connect 6 0 49 0;
#X connect 7 0 6 1;
#X connect 9 0 5 0;
#X connect 10 0 45 0;
#X connect 10 0 28 0;
#X connect 10 0 50 0;
#X connect 10 0 44 0;
#X connect 10 0 41 0;
#X connect 10 0 43 0;
#X connect 11 0 37 0;
#X connect 12 0 15 0;
#X connect 13 0 14 0;
#X connect 14 0 4 0;
#X connect 15 0 6 0;
#X connect 15 1 16 0;
#X connect 16 0 49 1;
#X connect 17 0 16 1;
#X connect 18 0 24 0;
#X connect 19 0 18 1;
#X connect 20 0 18 0;
#X connect 20 0 26 0;
#X connect 20 1 21 0;
#X connect 21 0 42 0;
#X connect 25 0 26 1;
#X connect 26 0 24 1;
#X connect 28 0 17 0;
#X connect 29 0 9 0;
#X connect 29 1 11 0;
#X connect 29 2 3 0;
#X connect 30 0 40 1;
#X connect 31 0 20 0;
#X connect 32 0 34 0;
#X connect 34 0 46 0;
#X connect 34 0 46 1;
#X connect 35 0 34 1;
#X connect 37 0 38 0;
#X connect 38 0 40 0;
#X connect 40 0 39 0;
#X connect 40 0 39 1;
#X connect 41 0 35 0;
#X connect 42 0 20 0;
#X connect 43 0 30 0;
#X connect 44 0 25 0;
#X connect 45 0 19 0;
#X connect 46 0 33 0;
#X connect 46 1 33 1;
#X connect 47 0 46 0;
#X connect 48 0 46 0;
#X connect 49 0 23 0;
#X connect 49 1 23 1;
#X connect 50 0 7 0;
